<svg xmlns="http://www.w3.org/2000/svg" viewBox="0 0 240 152"><defs><style>.cls-1{fill:#323232;}.cls-2{fill:#181818;}.cls-3{fill:#252525;}.cls-4{font-size:8.5px;}.cls-4,.cls-5{fill:#828282;}.cls-11,.cls-14,.cls-4,.cls-9{font-family:SourceSansPro-SemiBold, Source Sans Pro;font-weight:600;}.cls-11,.cls-6{fill:#969696;}.cls-7{fill:#5a5a5a;}.cls-8{fill:#3c3c3c;}.cls-11,.cls-14,.cls-9{font-size:12px;}.cls-9{fill:#dcdcdc;}.cls-10{fill:#464646;}.cls-12{fill:#2d8ceb;}.cls-13{fill:#c8c8c8;}.cls-14{fill:#fff;}.cls-15{opacity:0;}</style></defs><g id="not_buttons_" data-name="not buttons »"><g id="background"><rect class="cls-1" width="240" height="152"/></g><g id="bottom_bar_stroke" data-name="bottom bar stroke"><rect class="cls-2" x="0.096" y="139" width="239.904" height="1"/></g><g id="logo_bar_bar_bottom_bar" data-name="logo bar, bar &amp; bottom bar"><rect class="cls-3" x="115" y="87.85" width="115" height="6.3"/><rect class="cls-3" x="10" y="69" width="220" height="1"/><rect class="cls-3" y="140" width="240" height="12"/></g><g id="bottom_bar_text" data-name="bottom bar text"><text class="cls-4" transform="translate(191.996 148.582)">L E S S</text><path class="cls-5" d="M227.3,148.692l-.51-.51L228.977,146l-2.183-2.182.51-.51L230,146ZM225.455,146l-2.691-2.692-.51.51L224.436,146l-2.182,2.182.51.51Z"/></g><g id="logo_right_help" data-name="logo &amp; right help"><path class="cls-6" d="M182.608,85.084h-2.7V96.776h2.7Zm4.8-4.8H179.91v2.7H187.4Zm0,4.8h-2.7v16.189h2.7ZM155.5,96.776H137.809v-2.7H152.8V93.035l-14.99-1.82V85.084H155.5v2.7H140.508v1.043l14.989,1.82Zm51.694-11.692H189.5v2.7h14.989v1.043L189.5,90.645v6.131h17.688ZM192.2,93.035l12.291-1.492v2.535H192.2Zm-16.433-7.951-5.55,8.581a.9.9,0,0,1-.759.413h-3.546a.9.9,0,0,1-.759-.413l-5.55-8.581h-3.213l6.5,10.046a3.588,3.588,0,0,0,3.025,1.646h3.546a3.588,3.588,0,0,0,3.025-1.646l6.5-10.046Z"/></g></g><g id="buttons_" data-name="buttons »"><g id="bottom_stroke" data-name="bottom stroke"><path class="cls-7" d="M226.5,129h-40a3.5,3.5,0,0,1-3.5-3.5v-15a3.5,3.5,0,0,1,3.5-3.5h40a3.5,3.5,0,0,1,3.5,3.5v15A3.5,3.5,0,0,1,226.5,129Z"/><path class="cls-7" d="M101.5,129h-88a3.5,3.5,0,0,1-3.5-3.5v-15a3.5,3.5,0,0,1,3.5-3.5h88a3.5,3.5,0,0,1,3.5,3.5v15A3.5,3.5,0,0,1,101.5,129Z"/><path class="cls-7" d="M101.5,102h-88A3.5,3.5,0,0,1,10,98.5v-15A3.5,3.5,0,0,1,13.5,80h88a3.5,3.5,0,0,1,3.5,3.5v15A3.5,3.5,0,0,1,101.5,102Z"/><path class="cls-7" d="M169.5,129h-51a3.5,3.5,0,0,1-3.5-3.5v-15a3.5,3.5,0,0,1,3.5-3.5h51a3.5,3.5,0,0,1,3.5,3.5v15A3.5,3.5,0,0,1,169.5,129Z"/></g><g id="bottom_fill" data-name="bottom fill"><rect class="cls-8" x="184" y="108" width="45" height="20" rx="2.5"/><rect class="cls-8" x="11" y="108" width="93" height="20" rx="2.5"/><rect class="cls-8" x="116" y="108" width="56" height="20" rx="2.5"/><rect class="cls-8" x="11" y="81" width="93" height="20" rx="2.5"/></g><g id="bottom_label" data-name="bottom label"><text class="cls-9" transform="translate(21.422 94.653)">Relink Images</text><text class="cls-9" transform="translate(17.084 121.662)">Save All &amp; Close</text><text class="cls-9" transform="translate(194.92 121.662)">Save</text><text class="cls-9" transform="translate(124.798 121.662)">Save All</text></g><g id="top_stroke" data-name="top stroke"><rect class="cls-10" x="125" y="10" width="105" height="22" rx="3.5"/><rect class="cls-10" x="125" y="37" width="105" height="22" rx="3.5"/><rect class="cls-10" x="10" y="10" width="105" height="22" rx="3.5"/><rect class="cls-10" x="10" y="37" width="105" height="22" rx="3.5"/></g><g id="top_fill" data-name="top fill"><rect class="cls-1" x="126" y="11" width="103" height="20" rx="2.5"/><rect class="cls-1" x="126" y="38" width="103" height="20" rx="2.5"/><rect class="cls-1" x="11" y="11" width="103" height="20" rx="2.5"/><rect class="cls-1" x="11" y="38" width="103" height="20" rx="2.5"/></g><g id="top_label" data-name="top label"><text class="cls-11" transform="translate(134.055 25.262)">Reset Object ID&apos;s</text><text class="cls-11" transform="translate(31.373 25.262)">Instructions</text><text class="cls-11" transform="translate(19.613 52.062)">Duplicate Layers</text><text class="cls-11" transform="translate(142.808 52.062)">Import Styles</text></g></g><g id="mouseover_" data-name="mouseover »"><g id="mouseover_0" data-name="mouseover 0"><g id="mov0-10"><path class="cls-12" d="M226.5,129h-40a3.5,3.5,0,0,1-3.5-3.5v-15a3.5,3.5,0,0,1,3.5-3.5h40a3.5,3.5,0,0,1,3.5,3.5v15A3.5,3.5,0,0,1,226.5,129Z"/><rect class="cls-1" x="184" y="108" width="45" height="20" rx="2.5"/><text class="cls-9" transform="translate(194.92 121.662)">Save</text></g><g id="mov0-9"><path class="cls-12" d="M169.5,129h-51a3.5,3.5,0,0,1-3.5-3.5v-15a3.5,3.5,0,0,1,3.5-3.5h51a3.5,3.5,0,0,1,3.5,3.5v15A3.5,3.5,0,0,1,169.5,129Z"/><rect class="cls-1" x="116" y="108" width="56" height="20" rx="2.5"/><text class="cls-9" transform="translate(124.798 121.662)">Save All</text></g><g id="mov0-8"><path class="cls-12" d="M101.5,129h-88a3.5,3.5,0,0,1-3.5-3.5v-15a3.5,3.5,0,0,1,3.5-3.5h88a3.5,3.5,0,0,1,3.5,3.5v15A3.5,3.5,0,0,1,101.5,129Z"/><rect class="cls-1" x="11" y="108" width="93" height="20" rx="2.5"/><text class="cls-9" transform="translate(17.084 121.662)">Save All &amp; Close</text></g><g id="mov0-7"><path class="cls-12" d="M101.5,102h-88A3.5,3.5,0,0,1,10,98.5v-15A3.5,3.5,0,0,1,13.5,80h88a3.5,3.5,0,0,1,3.5,3.5v15A3.5,3.5,0,0,1,101.5,102Z"/><rect class="cls-1" x="11" y="81" width="93" height="20" rx="2.5"/><text class="cls-9" transform="translate(21.422 94.653)">Relink Images</text></g><g id="mov0-6"><rect class="cls-12" x="125" y="37" width="105" height="22" rx="3.5"/><rect class="cls-1" x="126" y="38" width="103" height="20" rx="2.5"/><text class="cls-9" transform="translate(142.808 52.062)">Import Styles</text></g><g id="mov0-5"><rect class="cls-12" x="10" y="37" width="105" height="22" rx="3.5"/><rect class="cls-1" x="11" y="38" width="103" height="20" rx="2.5"/><text class="cls-9" transform="translate(19.613 52.062)">Duplicate Layers</text></g><g id="mov0-4"><rect class="cls-12" x="125" y="10" width="105" height="22" rx="3.5"/><rect class="cls-1" x="126" y="11" width="103" height="20" rx="2.5"/><text class="cls-9" transform="translate(134.055 25.262)">Reset Object ID&apos;s</text></g><g id="mov0-3"><rect class="cls-12" x="10" y="10" width="105" height="22" rx="3.5"/><rect class="cls-1" x="11" y="11" width="103" height="20" rx="2.5"/><text class="cls-9" transform="translate(31.373 25.262)">Instructions</text></g></g></g><g id="mousedowns_" data-name="mousedowns »"><g id="mousedown_0" data-name="mousedown 0"><g id="mod0-10"><path class="cls-13" d="M226.5,129h-40a3.5,3.5,0,0,1-3.5-3.5v-15a3.5,3.5,0,0,1,3.5-3.5h40a3.5,3.5,0,0,1,3.5,3.5v15A3.5,3.5,0,0,1,226.5,129Z"/><rect class="cls-1" x="184" y="108" width="45" height="20" rx="2.5"/><text class="cls-14" transform="translate(194.92 121.662)">Save</text></g><g id="mod0-9"><path class="cls-13" d="M169.5,129h-51a3.5,3.5,0,0,1-3.5-3.5v-15a3.5,3.5,0,0,1,3.5-3.5h51a3.5,3.5,0,0,1,3.5,3.5v15A3.5,3.5,0,0,1,169.5,129Z"/><rect class="cls-1" x="116" y="108" width="56" height="20" rx="2.5"/><text class="cls-14" transform="translate(124.798 121.662)">Save All</text></g><g id="mod0-8"><path class="cls-13" d="M101.5,129h-88a3.5,3.5,0,0,1-3.5-3.5v-15a3.5,3.5,0,0,1,3.5-3.5h88a3.5,3.5,0,0,1,3.5,3.5v15A3.5,3.5,0,0,1,101.5,129Z"/><rect class="cls-1" x="11" y="108" width="93" height="20" rx="2.5"/><text class="cls-14" transform="translate(17.084 121.662)">Save All &amp; Close</text></g><g id="mod0-7"><path class="cls-13" d="M101.5,102h-88A3.5,3.5,0,0,1,10,98.5v-15A3.5,3.5,0,0,1,13.5,80h88a3.5,3.5,0,0,1,3.5,3.5v15A3.5,3.5,0,0,1,101.5,102Z"/><rect class="cls-1" x="11" y="81" width="93" height="20" rx="2.5"/><text class="cls-14" transform="translate(21.422 94.653)">Relink Images</text></g><g id="mod0-6"><rect class="cls-13" x="125" y="37" width="105" height="22" rx="3.5"/><rect class="cls-1" x="126" y="38" width="103" height="20" rx="2.5"/><text class="cls-14" transform="translate(142.808 52.062)">Import Styles</text></g><g id="mod0-5"><rect class="cls-13" x="10" y="37" width="105" height="22" rx="3.5"/><rect class="cls-1" x="11" y="38" width="103" height="20" rx="2.5"/><text class="cls-14" transform="translate(19.613 52.062)">Duplicate Layers</text></g><g id="mod0-4"><rect class="cls-13" x="125" y="10" width="105" height="22" rx="3.5"/><rect class="cls-1" x="126" y="11" width="103" height="20" rx="2.5"/><text class="cls-14" transform="translate(134.055 25.262)">Reset Object ID&apos;s</text></g><g id="mod0-3"><rect class="cls-13" x="10" y="10" width="105" height="22" rx="3.5"/><rect class="cls-1" x="11" y="11" width="103" height="20" rx="2.5"/><text class="cls-14" transform="translate(31.373 25.262)">Instructions</text></g></g></g><g id="listener_links_" data-name="listener links »"><g id="links0"><rect id="link0-10" class="cls-15" x="178" y="104.5" width="55" height="27.5"/><rect id="link0-9" class="cls-15" x="112" y="104.5" width="66" height="27.5"/><rect id="link0-8" class="cls-15" x="7" y="104.5" width="101" height="27.5"/><rect id="link0-7" class="cls-15" x="7" y="77" width="101" height="27.5"/><rect id="link0-6" class="cls-15" x="122" y="34.5" width="111" height="27.5"/><rect id="link0-5" class="cls-15" x="7" y="34.5" width="111" height="27.5"/><rect id="link0-4" class="cls-15" x="122" y="7" width="111" height="27.5"/><rect id="link0-3" class="cls-15" x="7" y="7" width="111" height="27.5"/></g></g><g id="ai_links_" data-name="ai links »"><g id="bottom_bar" data-name="bottom bar"><rect class="cls-15" x="160" y="139" width="80" height="13"/></g><g id="logos"><rect class="cls-15" x="112" y="77" width="121" height="27.5"/></g></g></svg>